C:\Users\mayra\OneDrive - Universitat Pompeu Fabra\PhD_Mayra\OpenSim\aurel\ID_04_Walking_14.mot
version=1
nRows=57
nColumns=19
inDegrees=yes

BTS OpenSim export

endheader
time	r.gr_force_vx	r.gr_force_vy	r.gr_force_vz	r.gr_force_px	r.gr_force_py	r.gr_force_pz	l.gr_force_vx	l.gr_force_vy	l.gr_force_vz	l.gr_force_px	l.gr_force_py	l.gr_force_pz	r.gr_torque_x	r.gr_torque_y	r.gr_torque_z	l.gr_torque_x	l.gr_torque_y	l.gr_torque_z
3.804000	0.00000000	0.00000000	0.00000000	0.00000000	0.00000000	0.00000000	-0.30106705	-0.18094207	0.58057588	1.50767624	0.00536874	0.29832333	0.00000000	0.00000000	0.00000000	-0.00196982	0.35775959	0.00013768
3.808000	0.00000000	0.00000000	0.00000000	0.00000000	0.00000000	0.00000000	-0.30104998	0.08147275	-0.49524993	0.41370195	-0.00063234	0.24031001	0.00000000	0.00000000	0.00000000	-0.00124145	0.22547333	0.00008677
3.812000	0.00000000	0.00000000	0.00000000	0.00000000	0.00000000	0.00000000	0.23907141	-0.44174847	0.04324185	1.27416193	0.00413075	0.17428349	0.00000000	0.00000000	0.00000000	0.00029348	-0.05330255	-0.00002051
3.816000	0.00000000	0.00000000	0.00000000	0.00000000	0.00000000	0.00000000	0.23760697	-0.17577490	0.04334421	0.66781825	0.00071895	0.36470369	0.00000000	0.00000000	0.00000000	0.00068651	-0.12468488	-0.00004798
3.820000	0.00000000	0.00000000	0.00000000	0.00000000	0.00000000	0.00000000	0.23904808	-0.43751082	0.04324348	0.64746279	0.00068057	0.17319447	0.00000000	0.00000000	0.00000000	0.00044186	-0.08025133	-0.00003088
3.824000	0.00000000	0.00000000	0.00000000	0.00000000	0.00000000	0.00000000	-0.30177978	0.08126169	0.04271339	0.41350394	-0.00068960	0.38625163	0.00000000	0.00000000	0.00000000	0.00073121	-0.13280347	-0.00005111
3.828000	0.00000000	0.00000000	0.00000000	0.00000000	0.00000000	0.00000000	0.23760697	-0.17577490	0.04334421	0.66781825	0.00071895	0.36470369	0.00000000	0.00000000	0.00000000	-0.00087741	0.15935571	0.00006133
3.832000	0.00000000	0.00000000	0.00000000	0.00000000	0.00000000	0.00000000	0.24050297	-0.70174676	0.04314179	1.03713655	0.00279761	0.24727082	0.00000000	0.00000000	0.00000000	0.00044523	-0.08086351	-0.00003112
3.836000	0.00000000	0.00000000	0.00000000	0.00000000	0.00000000	0.00000000	-0.83914435	-0.18390444	0.57984483	1.57528961	0.00574099	0.29841518	0.00000000	0.00000000	0.00000000	-0.00293715	0.53344661	0.00020529
3.840000	0.00000000	0.00000000	0.00000000	0.00000000	0.00000000	0.00000000	0.77775502	-0.43831891	-0.49399048	0.93500960	0.00232770	0.00715596	0.00000000	0.00000000	0.00000000	-0.00062404	0.11333895	0.00004362
3.844000	0.00000000	0.00000000	0.00000000	0.00000000	0.00000000	0.00000000	-0.30250961	0.08105065	0.58067673	0.41330594	-0.00074685	0.53219324	0.00000000	0.00000000	0.00000000	0.00113996	-0.20703970	-0.00007968
3.848000	0.00000000	0.00000000	0.00000000	0.00000000	0.00000000	0.00000000	-0.29890713	-0.44047251	0.04251260	0.67504686	0.00083244	0.17323194	0.00000000	0.00000000	0.00000000	0.00102317	-0.18582821	-0.00007151
3.852000	0.00000000	0.00000000	0.00000000	0.00000000	0.00000000	0.00000000	0.77413064	0.08718508	0.04417515	0.70538282	0.00091733	0.38664821	0.00000000	0.00000000	0.00000000	0.00015789	-0.02867647	-0.00001104
3.856000	0.00000000	0.00000000	0.00000000	0.00000000	0.00000000	0.00000000	0.23759462	-0.17353168	0.04334507	-0.12902355	-0.00366962	0.36774027	0.00000000	0.00000000	0.00000000	0.00088094	-0.15999620	-0.00006157
3.860000	0.00000000	0.00000000	0.00000000	0.00000000	0.00000000	0.00000000	0.23690522	0.08443444	-0.49451905	0.55964136	0.00017112	0.24050829	0.00000000	0.00000000	0.00000000	-0.00123192	0.22374128	0.00008610
3.864000	0.00000000	0.00000000	0.00000000	0.00000000	0.00000000	0.00000000	-0.30036059	-0.17649338	0.04261420	-0.05978692	-0.00328844	0.36783436	0.00000000	0.00000000	0.00000000	0.00087300	-0.15855378	-0.00006102
3.868000	0.00000000	0.00000000	0.00000000	0.00000000	0.00000000	0.00000000	0.77774680	-0.43683007	-0.49398991	1.24896777	0.00390692	0.39544231	0.00000000	0.00000000	0.00000000	0.00188715	-0.34274498	-0.00013190
3.872000	0.00000000	0.00000000	0.00000000	0.00000000	0.00000000	0.00000000	-0.83626074	-0.70762509	0.57964331	0.87508929	0.00195912	0.10762426	0.00000000	0.00000000	0.00000000	0.00018114	-0.03289840	-0.00001266
3.876000	0.00000000	0.00000000	0.00000000	0.00000000	0.00000000	0.00000000	-0.29818204	-0.70491952	0.58037424	1.05437648	0.00289914	0.23007740	0.00000000	0.00000000	0.00000000	-0.00040711	0.07393958	0.00002846
3.880000	0.00000000	0.00000000	0.00000000	0.00000000	0.00000000	0.00000000	-0.30177978	0.08126169	0.04271339	0.41350394	-0.00068960	0.38625163	0.00000000	0.00000000	0.00000000	0.00073121	-0.13280347	-0.00005111
3.884000	0.00000000	0.00000000	0.00000000	0.00000000	0.00000000	0.00000000	-0.29961845	-0.17852555	-0.49535000	0.73608500	0.00106848	0.43315709	0.00000000	0.00000000	0.00000000	-0.00068148	0.12377140	0.00004763
3.888000	0.00000000	0.00000000	0.00000000	0.00000000	0.00000000	0.00000000	-0.29963693	-0.44068357	0.58047593	0.67508429	0.00084326	0.14564747	0.00000000	0.00000000	0.00000000	0.00094591	-0.17179678	-0.00006611
3.892000	0.00000000	0.00000000	0.00000000	0.00000000	0.00000000	0.00000000	-0.30033869	-0.18047422	0.04261266	0.73582876	0.00127813	-0.11528187	0.00000000	0.00000000	0.00000000	0.00148755	-0.27016982	-0.00010397
3.896000	0.00000000	0.00000000	0.00000000	0.00000000	0.00000000	0.00000000	-0.29962459	-0.44292679	0.58047509	0.99089646	0.00258215	0.14555800	0.00000000	0.00000000	0.00000000	-0.00006360	0.01155091	0.00000445
3.900000	0.00000000	0.00000000	0.00000000	0.00000000	0.00000000	0.00000000	0.23687716	-0.17598595	0.58130753	0.66791099	0.00074577	0.29634318	0.00000000	0.00000000	0.00000000	0.00049505	-0.08991188	-0.00003460
3.904000	0.00000000	0.00000000	0.00000000	0.00000000	0.00000000	0.00000000	0.24123277	-0.70153576	-0.49482152	1.03711319	0.00279085	0.26448765	0.00000000	0.00000000	0.00000000	0.00009957	-0.01808468	-0.00000696
3.908000	0.00000000	0.00000000	0.00000000	0.00000000	0.00000000	0.00000000	-0.30253151	0.08503150	0.58067822	2.02829552	0.00853063	-0.46915042	0.00000000	0.00000000	0.00000000	-0.00235787	0.42823678	0.00016480
3.912000	0.00000000	0.00000000	0.00000000	0.00000000	0.00000000	0.00000000	-0.30177978	0.08126169	0.04271339	0.41350394	-0.00068960	0.38625163	0.00000000	0.00000000	0.00000000	0.00073121	-0.13280347	-0.00005111
3.916000	0.00000000	0.00000000	0.00000000	0.00000000	0.00000000	0.00000000	-0.29816633	-0.44225588	-0.49545148	0.98864222	0.00254801	0.20201573	0.00000000	0.00000000	0.00000000	0.00038980	-0.07079516	-0.00002724
3.920000	0.00000000	0.00000000	0.00000000	0.00000000	0.00000000	0.00000000	0.23905906	-0.43950525	0.04324272	0.96122015	0.00240761	0.17451875	0.00000000	0.00000000	0.00000000	0.00036859	-0.06694375	-0.00002576
3.924000	0.00000000	0.00000000	0.00000000	0.00000000	0.00000000	0.00000000	-0.83481818	-0.96961778	0.57954246	0.95279616	0.00235930	0.17951535	0.00000000	0.00000000	0.00000000	-0.00039953	0.07256276	0.00002793
3.928000	0.00000000	0.00000000	0.00000000	0.00000000	0.00000000	0.00000000	0.23690522	0.08443444	-0.49451905	0.55964136	0.00017112	0.24050829	0.00000000	0.00000000	0.00000000	-0.00123192	0.22374128	0.00008610
3.932000	0.00000000	0.00000000	0.00000000	0.00000000	0.00000000	0.00000000	-1.37146389	-1.23257840	0.57871139	0.89484596	0.00202453	0.22031386	0.00000000	0.00000000	0.00000000	0.00004616	-0.00838401	-0.00000323
3.936000	0.00000000	0.00000000	0.00000000	0.00000000	0.00000000	0.00000000	-0.30106848	-0.18068528	0.58057600	0.73592067	0.00130469	-0.18297803	0.00000000	0.00000000	0.00000000	0.00129795	-0.23573476	-0.00009072
3.940000	0.00000000	0.00000000	0.00000000	0.00000000	0.00000000	0.00000000	-0.84060878	0.08206913	0.57994717	1.88900852	0.00776379	-0.46933964	0.00000000	0.00000000	0.00000000	-0.00038742	0.07036251	0.00002708
3.944000	0.00000000	0.00000000	0.00000000	0.00000000	0.00000000	0.00000000	0.23687716	-0.17598595	0.58130753	0.66791099	0.00074577	0.29634318	0.00000000	0.00000000	0.00000000	0.00049505	-0.08991188	-0.00003460
3.948000	0.00000000	0.00000000	0.00000000	0.00000000	0.00000000	0.00000000	0.23831969	-0.43797868	0.58120668	0.96229035	0.00234916	0.34170276	0.00000000	0.00000000	0.00000000	-0.00038835	0.07053269	0.00002714
3.952000	0.00000000	0.00000000	0.00000000	0.00000000	0.00000000	0.00000000	-0.83841455	-0.18369339	0.04188152	1.57519794	0.00571447	0.36601427	0.00000000	0.00000000	0.00000000	-0.00045950	0.08345486	0.00003212
3.956000	0.00000000	0.00000000	0.00000000	0.00000000	0.00000000	0.00000000	0.77413064	0.08718508	0.04417515	0.70538282	0.00091733	0.38664821	0.00000000	0.00000000	0.00000000	0.00075029	-0.13626759	-0.00005244
3.960000	0.00000000	0.00000000	0.00000000	0.00000000	0.00000000	0.00000000	-0.29746461	-0.70246524	0.04241178	0.85681152	0.00180458	0.24767590	0.00000000	0.00000000	0.00000000	0.00085694	-0.15563855	-0.00005990
3.964000	0.00000000	0.00000000	0.00000000	0.00000000	0.00000000	0.00000000	-0.30252054	0.08303706	0.58067745	2.04727530	0.00825036	0.53065079	0.00000000	0.00000000	0.00000000	-0.00408132	0.74125022	0.00028526
3.968000	0.00000000	0.00000000	0.00000000	0.00000000	0.00000000	0.00000000	0.23760697	-0.17577490	0.04334421	0.66781825	0.00071895	0.36470369	0.00000000	0.00000000	0.00000000	0.00068651	-0.12468488	-0.00004798
3.972000	0.00000000	0.00000000	0.00000000	0.00000000	0.00000000	0.00000000	0.23761654	-0.17751253	0.04334354	0.66813362	0.00090544	-0.11537383	0.00000000	0.00000000	0.00000000	0.00006095	-0.01106945	-0.00000426
3.976000	0.00000000	0.00000000	0.00000000	0.00000000	0.00000000	0.00000000	0.23904808	-0.43751082	0.04324348	0.64746279	0.00068057	0.17319447	0.00000000	0.00000000	0.00000000	0.00044186	-0.08025133	-0.00003088
3.980000	0.00000000	0.00000000	0.00000000	0.00000000	0.00000000	0.00000000	0.23617542	0.08422339	0.04344427	0.55944335	0.00011387	0.38644990	0.00000000	0.00000000	0.00000000	0.00074075	-0.13453554	-0.00005177
3.984000	0.00000000	0.00000000	0.00000000	0.00000000	0.00000000	0.00000000	-0.29818347	-0.70466268	0.58037436	0.85786247	0.00186427	0.10760085	0.00000000	0.00000000	0.00000000	0.00042484	-0.07715964	-0.00002969
3.988000	0.00000000	0.00000000	0.00000000	0.00000000	0.00000000	0.00000000	0.23907000	-0.44149166	0.04324195	0.96238279	0.00248892	-0.02014340	0.00000000	0.00000000	0.00000000	0.00011469	-0.02082997	-0.00000802
3.992000	0.00000000	0.00000000	0.00000000	0.00000000	0.00000000	0.00000000	-0.29819441	-0.70267630	0.58037508	0.85683501	0.00181136	0.23040396	0.00000000	0.00000000	0.00000000	0.00022389	-0.04066323	-0.00001565
3.996000	0.00000000	0.00000000	0.00000000	0.00000000	0.00000000	0.00000000	0.24049062	-0.69950354	0.04314266	0.83953989	0.00170949	0.24765243	0.00000000	0.00000000	0.00000000	0.00049296	-0.08953195	-0.00003446
4.000000	0.00000000	0.00000000	0.00000000	0.00000000	0.00000000	0.00000000	0.23544562	0.08401234	0.58140761	0.55924541	0.00005661	0.53239155	0.00000000	0.00000000	0.00000000	0.00114950	-0.20877175	-0.00008034
4.004000	0.00000000	0.00000000	0.00000000	0.00000000	0.00000000	0.00000000	0.23761654	-0.17751253	0.04334354	0.66813362	0.00090544	-0.11537383	0.00000000	0.00000000	0.00000000	0.00006095	-0.01106945	-0.00000426
4.008000	0.00000000	0.00000000	0.00000000	0.00000000	0.00000000	0.00000000	-0.30177978	0.08126169	0.04271339	0.41350394	-0.00068960	0.38625163	0.00000000	0.00000000	0.00000000	-0.00083271	0.15123712	0.00005820
4.012000	0.00000000	0.00000000	0.00000000	0.00000000	0.00000000	0.00000000	0.23760697	-0.17577490	0.04334421	0.66781825	0.00071895	0.36470369	0.00000000	0.00000000	0.00000000	0.00068651	-0.12468488	-0.00004798
4.016000	0.00000000	0.00000000	0.00000000	0.00000000	0.00000000	0.00000000	0.23617542	0.08422339	0.04344427	0.55944335	0.00011387	0.38644990	0.00000000	0.00000000	0.00000000	0.00074075	-0.13453554	-0.00005177
4.020000	0.00000000	0.00000000	0.00000000	0.00000000	0.00000000	0.00000000	-0.30034825	-0.17873660	0.04261333	0.73617774	0.00109530	0.36479658	0.00000000	0.00000000	0.00000000	0.00069098	-0.12549618	-0.00004830
4.024000	0.00000000	0.00000000	0.00000000	0.00000000	0.00000000	0.00000000	0.23833677	-0.17556386	-0.49461910	0.66772550	0.00069213	0.43306422	0.00000000	0.00000000	0.00000000	-0.00068595	0.12458272	0.00004794
4.028000	0.00000000	0.00000000	0.00000000	0.00000000	0.00000000	0.00000000	-0.30395207	0.34303534	0.58077753	0.98139697	0.00242777	0.41079065	0.00000000	0.00000000	0.00000000	-0.00047434	0.08614939	0.00003315
